<svg id="Layer_1" xmlns="http://www.w3.org/2000/svg" viewBox="0 0 91 91"><style>.st0{fill:#d22425}</style><g id="XMLID_1_"><path class="st0" d="M68.3 23.3v44.4c0 3.4-2.7 6.1-6.1 6.1H28.8c-3.4 0-6.1-2.7-6.1-6.1V23.3c0-3.4 2.7-6.1 6.1-6.1h33.4c3.4 0 6.1 2.7 6.1 6.1zm-3.4 44V26.7c0-5.7-.6-6.1-6.1-6.1H32.2c-5.7 0-6.1.5-6.1 6.1v40.6c0 2.1.9 3.1 3 3.1h32.8c1.7 0 3-1.3 3-3.1z"/><path class="st0" d="M32 63.1h27.4v3.4H32zm0-6.3h27.4v3.4H32zm27-3.9h-3c0-5.3-4.7-9.7-10.5-9.7 2.1 0 4-.7 5.5-1.9 4.7 2 8 6.5 8 11.6z"/><path class="st0" d="M45.5 40.2c2 0 3.8.4 5.5 1.1-1.5 1.2-3.4 1.9-5.5 1.9s-4-.7-5.5-1.9c1.7-.7 3.5-1.1 5.5-1.1z"/><path class="st0" d="M45.5 25c5 0 9.1 4.1 9.1 9.1 0 2.9-1.4 5.6-3.6 7.2-1.7-.7-3.5-1.1-5.5-1.1 3.4 0 6.1-2.7 6.1-6.1 0-3.4-2.7-6.1-6.1-6.1s-6.1 2.7-6.1 6.1c0 3.4 2.7 6.1 6.1 6.1-2 0-3.8.4-5.5 1.1-2.2-1.7-3.6-4.3-3.6-7.2 0-5 4.1-9.1 9.1-9.1z"/><path class="st0" d="M40 41.3c1.5 1.2 3.4 1.9 5.5 1.9-5.8 0-10.5 4.3-10.5 9.7h-3c0-5.1 3.3-9.6 8-11.6z"/></g></svg>