<svg id="Layer_1" xmlns="http://www.w3.org/2000/svg" viewBox="0 0 85 85"><style>.st0{fill:#d22425}</style><path class="st0" d="M62.7 21.7h-4.4c-1.5 0-2.8-1.2-2.8-2.8v-.7c0-1.1-.6-1.6-1.7-1.6-1.2 0-1.7.5-1.7 1.6v.7c0 1.5-1.2 2.8-2.8 2.8H35.7c-1.5 0-2.8-1.2-2.8-2.8v-.7c0-1.1-.8-1.6-1.8-1.6-1.1 0-1.7.6-1.7 1.6v.7c0 1.5-1.2 2.8-2.8 2.8h-4.4c-3.1 0-5.6 2.5-5.6 5.6v35.5c0 3.1 2.5 5.6 5.6 5.6h40.3c3.1 0 5.6-2.5 5.6-5.6V27.4c.1-2.6-2.2-5.7-5.4-5.7zm-39.1 3.4h3.1c1.5 0 2.8 1.2 2.8 2.8v.9c0 .9.7 1.6 1.7 1.6s1.8-.7 1.8-1.6v-.9c0-1.5 1.2-2.8 2.8-2.8h13.6c1.5 0 2.8 1.2 2.8 2.8v.9c0 .9.6 1.6 1.7 1.6s1.7-.6 1.7-1.6v-.9c0-1.5 1.2-2.8 2.8-2.8h3.1c1.9 0 3.5 1.6 3.5 3.5v2c0 1.5-1.2 2.8-2.8 2.8H23.1c-1.5 0-2.8-1.2-2.8-2.8v-2c-.1-1.9 1.4-3.5 3.3-3.5zm37.7 39.8H23.7c-1.9 0-3.5-1.6-3.5-3.5V39.5c0-1.5 1.2-2.8 2.8-2.8h39.1c1.5 0 2.8 1.2 2.8 2.8v21.9c-.1 1.6-2.1 3.5-3.6 3.5z"/><path class="st0" d="M35.1 41.4c.9 0 1.6.1 2.3.4s1.3.6 1.8 1.1.9 1 1.2 1.7c.3.6.4 1.4.4 2.2 0 .7-.1 1.3-.3 1.9s-.5 1.1-.8 1.7c-.3.5-.7 1-1.2 1.5s-.9 1-1.4 1.5l-4.2 4.2 1.2-.3c.4-.1.8-.1 1.1-.1h4.7c.3 0 .6.1.8.3.2.2.3.4.3.8v.7c0 .6-.5 1.2-1.2 1.2H28.5v-1c0-.2 0-.4.1-.7.1-.2.2-.4.4-.6l5.6-5.6c.5-.5.9-.9 1.3-1.4.4-.4.7-.9.9-1.3.2-.4.4-.9.6-1.3.1-.4.2-.9.2-1.4 0-.4-.1-.8-.2-1.2-.1-.3-.3-.6-.5-.8-.2-.2-.5-.4-.8-.5s-.7-.2-1.1-.2-.7.1-1 .2-.6.3-.8.4c-.2.2-.5.4-.6.7-.2.3-.3.5-.4.8-.1.4-.3.7-.6.8s-.6.2-1 .1l-.5-.1c-.7-.1-1.1-.8-.9-1.4.1-.4.3-.8.5-1.1.4-.7.8-1.2 1.4-1.7.5-.4 1.2-.8 1.9-1s1.3-.5 2.1-.5zm20.2 11.7c.6 0 1.2.5 1.2 1.2v.7c0 .2-.1.3-.2.4-.1.1-.3.2-.5.2h-.5c-.6 0-1.2.5-1.2 1.2V59c0 .6-.5 1.2-1.2 1.2h-.4c-.6 0-1.2-.5-1.2-1.2v-2.2c0-.6-.5-1.2-1.2-1.2h-6.6c-.2 0-.4-.1-.6-.2-.2-.1-.3-.3-.3-.5l-.2-1.1c-.1-.3 0-.7.2-.9l8.1-10.8c.2-.3.6-.5.9-.5h1.2c.6 0 1.2.5 1.2 1.2V52c.2.6.7 1.1 1.3 1.1zm-3.9-6c0-.6 0-1.2.1-1.9l-4.4 6.1c-.6.8 0 1.8.9 1.8h2.2c.6 0 1.2-.5 1.2-1.2v-4.8z"/></svg>