<svg id="Layer_1" xmlns="http://www.w3.org/2000/svg" viewBox="0 0 102.7 102.7"><style>.st0{fill:#d22425}</style><path class="st0" d="M73.4 41.2v-.9c0-4.7-1.8-4.5-6.5-4.5H51.5c-2.8 0-3.1.3-3.1-2.6v.4c0-4.7-3.8-6.5-8.5-6.5H28.3c-4.7 0-5.5 2.8-5.5 5.5v35.1c0 6.4 2.6 8.2 5.5 8.2h44.3c4.7 0 7.5-3.8 7.5-8.5V49.7c-.1-4.5-2.5-8.1-6.7-8.5zM28.2 72.5c-2.8 0-2.1-2.3-2.1-7.1V33.6c0-1.5-.1-3.1 3.1-3.1h10.6c2.8 0 5.1.3 5.1 3.1 0 4.7 1.8 5.5 6.5 5.5h15.4c2.6 0 3.1-.2 3.1 1.1v.9H38.8c-4.7 0-8.5 3.8-8.5 8.5v17.8c0 2.8.7 5.1-2.1 5.1zm48.4-5.1c0 2.8-1.3 5.1-4.1 5.1H33c1.1-1.5.7-3.2.7-5.1V49.7c0-2.8 2.3-5.1 5.1-5.1h33.6c2.8 0 4.1 2.3 4.1 5.1l.1 17.7z"/><path class="st0" d="M40.6 49.8h29v3.4h-29zm0 13.9h29v3.4h-29zm0-7h29v3.4h-29z"/></svg>