<svg id="Layer_1" xmlns="http://www.w3.org/2000/svg" viewBox="0 0 96.7 96.7"><style>.st0{fill:#d22425}</style><path class="st0" d="M71.3 68.9h-46c-2.7 0-4.8-2.2-4.8-4.8V32.6c0-2.7 2.2-4.8 4.8-4.8h46c2.7 0 4.8 2.2 4.8 4.8v31.5c.1 2.6-2.1 4.8-4.8 4.8zm1.5-35.5c0-1.3-1-2.3-2.3-2.3H26.2c-1.3 0-2.3 1-2.3 2.3v29.7c0 1.3 1 2.3 2.3 2.3h44.3c1.3 0 2.3-1 2.3-2.3V33.4zm-3.5 27.9l-7.7-7.7-4.4 4.4 4 4c.5.5.5 1.2 0 1.7s-1.2.5-1.7 0L42.1 46.3 27.2 61.2c-.5.5-1.2.5-1.7 0s-.5-1.2 0-1.7l15.6-15.6c0-.1.1-.1.1-.2.2-.2.6-.3.9-.3s.6.1.9.3c.1.1.1.1.1.2l12.3 12.3 5.1-5.1c0-.1.1-.1.1-.2.2-.2.6-.3.9-.3s.6.1.9.3c.1.1.1.1.1.2l8.4 8.4c.5.5.5 1.2 0 1.7-.4.5-1.1.5-1.6.1zm-12.8-16c-2.7 0-4.8-2.2-4.8-4.8s2.2-4.8 4.8-4.8c2.7 0 4.8 2.2 4.8 4.8s-2.1 4.8-4.8 4.8zm0-7.3c-1.3 0-2.4 1.1-2.4 2.4s1.1 2.4 2.4 2.4 2.4-1.1 2.4-2.4-1-2.4-2.4-2.4z"/></svg>