<svg id="Layer_1" xmlns="http://www.w3.org/2000/svg" viewBox="0 0 102.7 102.7"><style>.st0{fill:#d22425}</style><path class="st0" d="M36.4 73.8h-4.6c-2.9 0-5.2-2.3-5.2-5.2V34.1c0-2.9 2.3-5.2 5.2-5.2h4.6c2.9 0 5.2 2.3 5.2 5.2v34.5c0 2.9-2.4 5.2-5.2 5.2zm-4.7-41.9c-1.2 0-2.2 1-2.2 2.2v34.5c0 1.2 1 2.2 2.2 2.2h4.6c1.2 0 2.2-1 2.2-2.2V34.1c0-1.2-1-2.2-2.2-2.2h-4.6zm22 24.6h-4.6c-2.9 0-5.2-2.3-5.2-5.2V34.1c0-2.9 2.3-5.2 5.2-5.2h4.6c2.9 0 5.2 2.3 5.2 5.2v17.2c0 2.9-2.4 5.2-5.2 5.2zm-4.6-24.6c-1.2 0-2.2 1-2.2 2.2v17.2c0 1.2 1 2.2 2.2 2.2h4.6c1.2 0 2.2-1 2.2-2.2V34.1c0-1.2-1-2.2-2.2-2.2h-4.6zm4.6 41.9h-4.6c-2.9 0-5.2-2.3-5.2-5.2V64c0-2.9 2.3-5.2 5.2-5.2h4.6c2.9 0 5.2 2.3 5.2 5.2v4.6c0 2.9-2.4 5.2-5.2 5.2zm-4.6-11.9c-1.2 0-2.2 1-2.2 2.2v4.6c0 1.2 1 2.2 2.2 2.2h4.6c1.2 0 2.2-1 2.2-2.2v-4.6c0-1.2-1-2.2-2.2-2.2h-4.6zM71 73.8h-4.6c-2.9 0-5.2-2.3-5.2-5.2V51.4c0-2.9 2.3-5.2 5.2-5.2H71c2.9 0 5.2 2.3 5.2 5.2v17.2c-.1 2.9-2.5 5.2-5.2 5.2zm-4.6-24.6c-1.2 0-2.2 1-2.2 2.2v17.2c0 1.2 1 2.2 2.2 2.2H71c1.2 0 2.2-1 2.2-2.2V51.4c0-1.2-1-2.2-2.2-2.2h-4.6zm4.6-5.3h-4.6c-2.9 0-5.2-2.3-5.2-5.2v-4.6c0-2.9 2.3-5.2 5.2-5.2H71c2.9 0 5.2 2.3 5.2 5.2v4.6c-.1 2.9-2.5 5.2-5.2 5.2zm-4.6-12c-1.2 0-2.2 1-2.2 2.2v4.6c0 1.2 1 2.2 2.2 2.2H71c1.2 0 2.2-1 2.2-2.2v-4.6c0-1.2-1-2.2-2.2-2.2h-4.6z"/></svg>