<svg id="Layer_1" xmlns="http://www.w3.org/2000/svg" viewBox="0 0 91 91"><style>.st0{fill:#d22425}</style><path class="st0" d="M29.2 43.3h3.4v6.3h-3.4zm0 12.6h3.4v6.3h-3.4zm0-25.1h3.4v6.3h-3.4zm10.5 25.1h3.4v6.3h-3.4zm0-12.6h3.4v6.3h-3.4zm0-12.5h3.4v6.3h-3.4zm19.4 19.8h6.7V54h-6.7zm0 8.3h6.7v3.4h-6.7z"/><path class="st0" d="M54.5 72.3h6.1c7.1 0 12.8-5.7 12.8-12.8V46.8c0-3.4-2.7-6.1-6.1-6.1H54.5V24.8c0-3.4-2.7-6.1-6.1-6.1H23.8c-3.4 0-6.1 2.7-6.1 6.1v41.4c0 3.4 2.7 6.1 6.1 6.1h30.7zm15.6-22.1v9.3c0 5.2-4.2 9.4-9.4 9.4h-6.1V44.1H64c5.8 0 6.1.3 6.1 6.1zm-49 15.6V28.2c0-5.6.4-6.1 6.1-6.1H45c5.5 0 6.1.4 6.1 6.1v40.7h-27c-2.1 0-3-1-3-3.1z"/></svg>