<svg id="Layer_1" xmlns="http://www.w3.org/2000/svg" viewBox="0 0 77.9 77.9"><style>.st0{fill:#d22425}</style><path class="st0" d="M23.3 51.6h-5c-.8 0-1.5-.7-1.5-1.5V33.9c0-.8.7-1.5 1.5-1.5h3.2c-.2-.3-.3-3-.3-3.4H16c-1.4 0-2.6 1.2-2.6 2.6v20.8c0 1.4 1.2 2.6 2.6 2.6h7.6c-.2-.3-.3-3-.3-3.4zm39.9-22.5h-5.5c.1.3.1 3.1 0 3.4h3.1c.8 0 1.5.7 1.5 1.5v16.1c0 .8-.7 1.5-1.5 1.5h-6.2c.2.3.2 3 .2 3.4h8.3c1.4 0 2.6-1.2 2.6-2.6V31.6c.1-1.4-1.1-2.5-2.5-2.5z"/><path class="st0" d="M22.4 38.8c-.6 0-1.1-.3-1.5-.8-.3-.5-.5-1.1-.5-1.8V15.4c0-.7.2-1.3.5-1.8s.9-.8 1.5-.8h34.1c.6 0 1.1.3 1.5.8.3.5.5 1.1.5 1.8v20.8c0 .7-.2 1.3-.5 1.8s-.9.8-1.5.8H22.4zm1.8-22.2c-.2.3-.3.7-.3 1.1v16.2c0 .5.1.9.3 1.1.2.3.4.4.6.4h29.4c.2 0 .4-.1.6-.4.2-.2.3-.6.3-1.1V17.7c0-.5-.1-.9-.3-1.1-.2-.3-.4-.4-.6-.4H24.8c-.2 0-.4.1-.6.4zm-1.5 45.6V48.6c0-1 .8-1.9 1.8-1.9h29.2c1 0 1.8.9 1.8 1.9v13.6c0 1-.8 1.9-1.8 1.9H24.5c-1 0-1.8-.9-1.8-1.9zm3.4-11.3v8.9c0 .5.3.8.7.8h24.5c.4 0 .7-.3.7-.8v-8.9c0-.5-.3-.8-.7-.8H26.8c-.3 0-.7.4-.7.8z"/><path class="st0" d="M26.8 24.7v-3.4h25.3v3.4zm0 5.6v-3.4h25.3v3.4z"/></svg>