<svg id="Layer_1" xmlns="http://www.w3.org/2000/svg" viewBox="0 0 91 91"><style>.st0{fill:#d22425}</style><path class="st0" d="M53.4 53.1c-5 0-9.1-4.1-9.1-9.1s4.1-9.1 9.1-9.1 9.1 4.1 9.1 9.1-4.1 9.1-9.1 9.1zm0-14.8c-3.1 0-5.7 2.5-5.7 5.7s2.5 5.7 5.7 5.7 5.7-2.5 5.7-5.7-2.6-5.7-5.7-5.7zM31.2 53.1c-5 0-9.1-4.1-9.1-9.1s4.1-9.1 9.1-9.1 9.1 4.1 9.1 9.1-4 9.1-9.1 9.1zm0-14.8c-3.1 0-5.7 2.5-5.7 5.7s2.5 5.7 5.7 5.7 5.7-2.5 5.7-5.7-2.5-5.7-5.7-5.7z"/><path transform="rotate(-45.001 62.296 35.13)" class="st0" d="M57.4 33.4h9.8v3.4h-9.8z"/><path class="st0" d="M59.7 28.5h9.2v3.4h-9.2z"/><path class="st0" d="M65.5 28.5h3.4v9.2h-3.4zm-36 24.2h3.4v9.8h-3.4z"/><path class="st0" d="M26.3 55.9h9.8v3.4h-9.8z"/></svg>