<svg id="Capa_1" xmlns="http://www.w3.org/2000/svg" viewBox="0 0 91.3 91.3"><style>.st0{fill:#d22425}</style><path class="st0" d="M69.4 43.1c0 .9.7 1.8 1.8 1.8s1.8-.7 1.8-1.8c0-12.4-10.2-22.6-22.6-22.6-.9 0-1.8.7-1.8 1.8s.7 1.8 1.8 1.8c10.4-.2 19 8.4 19 19zM48.6 31.3c0 .9.7 1.8 1.8 1.8 5.4 0 9.7 4.3 9.7 9.7 0 .9.7 1.8 1.8 1.8s1.8-.7 1.8-1.8c0-7.2-5.9-13.1-13.1-13.1-1.3 0-2 .7-2 1.6zm9.5 16.5c-.2-.2-.7-.5-1.1-.5-.5 0-.9.2-1.1.5l-3.6 3.6c-1.4 1.4-3.6 1.4-5 0l-6.8-6.1c-1.4-1.4-1.4-3.6 0-5l4.1-4.1c.7-.7.7-1.8 0-2.5L29.5 18.8c-.2-.2-.7-.5-1.1-.5-.5 0-.9.2-1.1.5s-3.8 3.8-5 5.2c-3.2 3.2-3.6 9.7-1.4 15.4 5 12.4 16.7 22.8 30.5 31.2 1.1.7 3.8 1.4 6.6 1.4 2.5 0 6.1-.5 9.3-3.2 2.9-2.5 4.7-4.5 5-4.7.7-.7.7-1.8 0-2.3l-14.2-14zm6.8 18.3c-2.3 2-5 2.3-7 2.3-2.5 0-4.5-.7-4.7-.9C37.6 58.2 28.1 48.7 24 38.1c-1.8-4.7-1.1-9.9.5-11.7l3.8-3.8L40.7 35l-2.9 2.9c-2.7 2.7-2.7 7 0 9.7l6.8 6.1c2.5 2.5 7 2.5 9.7 0l2.5-2.5 11.5 11.5c-1.1 1.6-1.6 2.1-3.4 3.4z"/></svg>