<svg id="Layer_1" xmlns="http://www.w3.org/2000/svg" viewBox="0 0 85 85"><style>.st0{fill:#d22425}</style><path class="st0" d="M40.7 25.3l-12.3 7.9c-.8.5-1 1.6-.5 2.4.5.8 1.6 1 2.4.5 0 0 9.3-6.1 11.1-7.3.7-.6 1.7-.6 2.4 0 2 1.3 11 7.3 11 7.3.8.5 1.8.3 2.4-.5.5-.8.3-1.8-.5-2.4l-12.3-7.9c-1.1-.7-2.6-.7-3.7 0z"/><path class="st0" d="M48.7 41.7c0 .9-.8 1.7-1.7 1.7h-8.8c-.9 0-1.7-.8-1.7-1.7V35l-3.4 2.3v5.1c0 2.4 2 4.4 4.4 4.4h10.2c2.4 0 4.4-2 4.4-4.4v-5.1L48.7 35v6.7z"/><path class="st0" d="M42.5 12.9c-13 0-23.5 10.5-23.5 23.5 0 10.6 7.3 20 17.4 22.7l4.5 11.8c.3.7.9 1.1 1.6 1.1.7 0 1.3-.4 1.6-1.1l4.3-11.7C58.7 56.6 66 47.1 66 36.5c0-13-10.5-23.6-23.5-23.6zm4.3 43.2c-.6.1-1 .5-1.2 1.1l-3 8.3-3.2-8.3c-.2-.5-.7-.9-1.2-1.1-9.1-2-15.7-10.3-15.7-19.6 0-11.1 9-20.1 20.1-20.1s20.1 9 20.1 20.1c-.1 9.3-6.7 17.6-15.9 19.6z"/></svg>