<svg id="Layer_1" xmlns="http://www.w3.org/2000/svg" viewBox="0 0 108 108"><style>.st0{fill:#d22425}</style><path class="st0" d="M35.8 57.3h1.3c.1 0 .2 0 .3.1l.2.2 1 3.7c.1.2.1.4.1.6s.1.4.1.6c.1-.2.1-.4.2-.6s.1-.4.2-.6l1.2-3.8c0-.1.1-.2.2-.2.1-.1.2-.1.3-.1h.7c.1 0 .2 0 .3.1l.2.2 1.1 3.8c.1.2.1.4.2.6s.1.4.1.6c0-.2.1-.4.1-.6s.1-.4.1-.6l1-3.7c0-.1.1-.2.2-.2.1-.1.2-.1.3-.1h1.3l-2.2 7H43c-.2 0-.3-.1-.3-.3l-1.3-4c-.1-.3-.2-.5-.2-.8-.1.3-.1.5-.2.8l-1.3 4c-.1.2-.2.3-.4.3H38l-2.2-7zm11 0h1.3c.1 0 .2 0 .3.1l.2.2 1 3.7c.1.2.1.4.1.6s.1.4.1.6c.1-.2.1-.4.2-.6s.1-.4.2-.6l1.2-3.8c0-.1.1-.2.2-.2.1-.1.2-.1.3-.1h.7c.1 0 .2 0 .3.1l.2.2 1.1 3.8c.1.2.1.4.2.6.1.2.1.4.1.6 0-.2.1-.4.1-.6s.1-.4.1-.6l1-3.7c0-.1.1-.2.2-.2.1-.1.2-.1.3-.1h1.3l-2.2 7h-1.4c-.2 0-.3-.1-.3-.3l-1.3-4c-.1-.3-.2-.5-.2-.8-.1.3-.1.5-.2.8l-1.3 4c-.1.2-.2.3-.4.3H49l-2.2-7zm11 0h1.3c.1 0 .2 0 .3.1l.2.2 1 3.7c.1.2.1.4.1.6s.1.4.1.6c.1-.2.1-.4.2-.6.1-.2.1-.4.2-.6l1.2-3.8c0-.1.1-.2.2-.2.1-.1.2-.1.3-.1h.7c.1 0 .2 0 .3.1l.2.2 1.1 3.8c.1.2.1.4.2.6.1.2.1.4.1.6 0-.2.1-.4.1-.6s.1-.4.1-.6l1-3.7c0-.1.1-.2.2-.2.1-.1.2-.1.3-.1h1.3l-2.2 7h-1.4c-.2 0-.3-.1-.3-.3l-1.3-4c-.1-.3-.2-.5-.2-.8-.1.3-.1.5-.2.8l-1.3 4c-.1.2-.2.3-.4.3H60l-2.2-7z"/><path class="st0" d="M57.8 39.5c8.1 0 11.4 4.8 11.4 10.8V53h1.7c4.9 0 8.6 2.6 8.6 8 0 4-3.1 7.3-7.1 7.3h-32c-4.8 0-9.9-1.2-9.9-8.1 0-3.8 4-6.5 7.3-7.6 0 0 .4-6 4.9-6.7.7-.1 1.5.2 2.2.5l2.1 1 1-1.8c1.7-3.6 5.6-6.1 9.8-6.1m.4-3.4c-5.7 0-10.7 2.4-13 7.2-1-.5-2.1-.8-3.3-.8-3.7 0-6.7 4.7-7.3 8.2-4.4 1.5-7.5 5.6-7.5 10.5 0 6.2 5 10.6 11.1 10.6h34.4c5.6 0 10.2-4.1 10.2-9.7 0-7-4-12.2-10.2-12.2v-.4c0-8-6.5-13.4-14.4-13.4z"/></svg>