<svg id="Слой_1" xmlns="http://www.w3.org/2000/svg" viewBox="0 0 128 128"><style>.st0{fill:#d22425}</style><path id="XMLID_1_" class="st0" d="M93.1 43.5c-.6-1-1.4-1.7-2.3-2.2-.9-.5-1.9-.8-3-.8H40.4c-1.1 0-2.1.2-3 .8-1 .5-1.8 1.3-2.3 2.2-.7 1-1 2.2-1 3.4v34.2c0 1.2.3 2.3.9 3.3s1.3 1.7 2.2 2.2c1 .6 2.1.9 3.3.9h47.3c1.2 0 2.3-.3 3.3-.9s1.7-1.3 2.2-2.2c.6-1 .9-2.1.9-3.3V46.9c-.1-1.3-.5-2.4-1.1-3.4zM53 52.3l-12.7-8.6h47.6l-12.2 8.6h5.5l9.4-6.7c.2.4.2.8.2 1.3v34.2c0 .3 0 .6-.2.8l-11.3-6.6h-6.1l15.1 8.9c-.2.1-.6.2-.8.2H40.2c-.3 0-.6 0-.8-.2l15.2-8.9h-6.1l-11.3 6.6c-.2-.2-.2-.5-.2-.8V46.9c0-.5.2-1 .3-1.4l9.9 6.8H53z"/><path class="st0" d="M60.5 56.4v1c0 .3-.1.6-.3.9l-7.7 10.9h7.8v2.2H48.8v-1.1c0-.1 0-.3.1-.4 0-.1.1-.2.2-.4l7.7-11h-7.5v-2.2h11.2v.1zm5 15h-2.8V56.3h2.8v15.1zm6.2-5.3v5.3h-2.8V56.3h4.9c1 0 1.9.1 2.6.4.7.2 1.3.6 1.8 1s.8.9 1.1 1.5c.2.6.3 1.2.3 1.9s-.1 1.4-.4 2c-.2.6-.6 1.1-1.1 1.6-.5.4-1.1.8-1.8 1s-1.6.4-2.6.4h-2zm0-2.1h2.1c.5 0 1-.1 1.3-.2.4-.1.7-.3 1-.6.3-.2.4-.5.6-.9.1-.3.2-.7.2-1.2 0-.4-.1-.8-.2-1.1-.1-.3-.3-.6-.6-.8-.2-.2-.6-.4-.9-.5-.4-.1-.8-.2-1.4-.2h-2.1V64z"/></svg>